<svg xmlns="http://www.w3.org/2000/svg" viewBox="0 0 16 16" xmlns:v="https://vecta.io/nano"><path d="M3.68 8a1.03 1.03 0 0 0 1.03 1.03h1.65V6.96H4.7c-.57 0-1.03.47-1.03 1.04zM7.36.03C3.54.35.44 3.4.06 7.22a7.98 7.98 0 0 0 2.55 6.69l1.52-1.77C2.87 10.95 2.16 9.2 2.4 7.28a5.72 5.72 0 0 1 4.71-4.87c1.68-.27 3.25.2 4.44 1.14l1.52-1.77C11.53.54 9.53-.15 7.36.03z" fill="#ffb21b"/><path d="M6.93 11.23c-.02 1.4 2.2 1.4 2.17 0v-2.2h2.2c1.34.02 1.34-2.1 0-2.07H9.1v-2.2c.02-1.4-2.2-1.4-2.17 0v6.47zm6.5-9.13L11.9 3.86c1.24 1.2 1.95 2.94 1.7 4.85a5.72 5.72 0 0 1-4.71 4.87c-1.67.27-3.23-.2-4.42-1.12l-1.52 1.77a7.98 7.98 0 0 0 5.68 1.73c3.82-.32 6.93-3.38 7.3-7.2.27-2.64-.77-5.04-2.52-6.68z" fill="#13a05b"/></svg>